<mxfile host="app.diagrams.net" modified="2023-12-23T06:33:33.088Z" agent="Mozilla/5.0 (Windows NT 10.0; Win64; x64) AppleWebKit/537.36 (KHTML, like Gecko) Chrome/118.0.5993.771 YaBrowser/23.11.2.771 Yowser/2.5 Safari/537.36" etag="aXtQL7jHKj5Fc9sulNgl" version="22.1.11" type="github">
  <diagram name="Page-1" id="dd472eb7-4b8b-5cd9-a60b-b15522922e76">
    <mxGraphModel dx="1670" dy="1808" grid="1" gridSize="10" guides="1" tooltips="1" connect="1" arrows="1" fold="1" page="1" pageScale="1" pageWidth="1100" pageHeight="850" background="none" math="0" shadow="0">
      <root>
        <mxCell id="0" />
        <mxCell id="1" parent="0" />
        <mxCell id="374e34682ed331ee-1" value="Производство паштета" style="ellipse;whiteSpace=wrap;html=1;rounded=1;shadow=0;dashed=0;comic=0;fontFamily=Verdana;fontSize=22;fontColor=#393C56;fillColor=#F2CC8F;strokeColor=#E07A5F;labelBackgroundColor=none;" parent="1" vertex="1">
          <mxGeometry x="330" y="180" width="400" height="400" as="geometry" />
        </mxCell>
        <mxCell id="45236fa5f4b8e91a-1" value="Смета на закупку сырья" style="ellipse;whiteSpace=wrap;html=1;rounded=1;shadow=0;dashed=0;comic=0;fontFamily=Verdana;fontSize=22;fontColor=#393C56;fillColor=#F2CC8F;strokeColor=#E07A5F;labelBackgroundColor=none;" parent="1" vertex="1">
          <mxGeometry x="570" y="10" width="160" height="160" as="geometry" />
        </mxCell>
        <mxCell id="wPZr9ZF9iKrXsQ1pUPwF-14" style="edgeStyle=orthogonalEdgeStyle;rounded=1;orthogonalLoop=1;jettySize=auto;html=1;labelBackgroundColor=none;strokeColor=#E07A5F;fontColor=default;" parent="1" source="45236fa5f4b8e91a-2" edge="1">
          <mxGeometry relative="1" as="geometry">
            <mxPoint x="529.9999999999998" y="590" as="targetPoint" />
            <Array as="points">
              <mxPoint x="830" y="740" />
              <mxPoint x="830" y="630" />
              <mxPoint x="531" y="630" />
              <mxPoint x="531" y="590" />
            </Array>
          </mxGeometry>
        </mxCell>
        <mxCell id="45236fa5f4b8e91a-2" value="Аудитор контролер" style="ellipse;whiteSpace=wrap;html=1;rounded=1;shadow=0;dashed=0;comic=0;fontFamily=Verdana;fontSize=22;fontColor=#393C56;fillColor=#F2CC8F;strokeColor=#E07A5F;labelBackgroundColor=none;" parent="1" vertex="1">
          <mxGeometry x="770" y="680" width="120" height="120" as="geometry" />
        </mxCell>
        <mxCell id="wPZr9ZF9iKrXsQ1pUPwF-16" style="edgeStyle=orthogonalEdgeStyle;rounded=1;orthogonalLoop=1;jettySize=auto;html=1;labelBackgroundColor=none;strokeColor=#E07A5F;fontColor=default;" parent="1" source="45236fa5f4b8e91a-3" target="374e34682ed331ee-1" edge="1">
          <mxGeometry relative="1" as="geometry" />
        </mxCell>
        <mxCell id="45236fa5f4b8e91a-3" value="Накладные" style="ellipse;whiteSpace=wrap;html=1;rounded=1;shadow=0;dashed=0;comic=0;fontFamily=Verdana;fontSize=22;fontColor=#393C56;fillColor=#F2CC8F;strokeColor=#E07A5F;labelBackgroundColor=none;" parent="1" vertex="1">
          <mxGeometry x="820" y="200" width="160" height="160" as="geometry" />
        </mxCell>
        <mxCell id="45236fa5f4b8e91a-4" value="Поставки сырья" style="ellipse;whiteSpace=wrap;html=1;rounded=1;shadow=0;dashed=0;comic=0;fontFamily=Verdana;fontSize=22;fontColor=#393C56;fillColor=#F2CC8F;strokeColor=#E07A5F;labelBackgroundColor=none;" parent="1" vertex="1">
          <mxGeometry x="40" y="470" width="160" height="160" as="geometry" />
        </mxCell>
        <mxCell id="45236fa5f4b8e91a-5" value="Финансовые ресурсы" style="ellipse;whiteSpace=wrap;html=1;rounded=1;shadow=0;dashed=0;comic=0;fontFamily=Verdana;fontSize=22;fontColor=#393C56;fillColor=#F2CC8F;strokeColor=#E07A5F;labelBackgroundColor=none;" parent="1" vertex="1">
          <mxGeometry x="40" y="125" width="160" height="160" as="geometry" />
        </mxCell>
        <mxCell id="wPZr9ZF9iKrXsQ1pUPwF-17" style="edgeStyle=orthogonalEdgeStyle;rounded=1;orthogonalLoop=1;jettySize=auto;html=1;labelBackgroundColor=none;strokeColor=#E07A5F;fontColor=default;" parent="1" source="45236fa5f4b8e91a-6" target="374e34682ed331ee-1" edge="1">
          <mxGeometry relative="1" as="geometry" />
        </mxCell>
        <mxCell id="45236fa5f4b8e91a-6" value="Нормативные документы" style="ellipse;whiteSpace=wrap;html=1;rounded=1;shadow=0;dashed=0;comic=0;fontFamily=Verdana;fontSize=22;fontColor=#393C56;fillColor=#F2CC8F;strokeColor=#E07A5F;labelBackgroundColor=none;" parent="1" vertex="1">
          <mxGeometry x="820" y="400" width="180" height="180" as="geometry" />
        </mxCell>
        <mxCell id="wPZr9ZF9iKrXsQ1pUPwF-11" style="edgeStyle=orthogonalEdgeStyle;rounded=1;orthogonalLoop=1;jettySize=auto;html=1;exitX=0.5;exitY=0;exitDx=0;exitDy=0;entryX=0.5;entryY=1;entryDx=0;entryDy=0;labelBackgroundColor=none;strokeColor=#E07A5F;fontColor=default;" parent="1" source="45236fa5f4b8e91a-7" target="374e34682ed331ee-1" edge="1">
          <mxGeometry relative="1" as="geometry" />
        </mxCell>
        <mxCell id="45236fa5f4b8e91a-7" value="Технологи" style="ellipse;whiteSpace=wrap;html=1;rounded=1;shadow=0;dashed=0;comic=0;fontFamily=Verdana;fontSize=22;fontColor=#393C56;fillColor=#F2CC8F;strokeColor=#E07A5F;labelBackgroundColor=none;" parent="1" vertex="1">
          <mxGeometry x="610" y="680" width="120" height="120" as="geometry" />
        </mxCell>
        <mxCell id="wPZr9ZF9iKrXsQ1pUPwF-15" style="edgeStyle=orthogonalEdgeStyle;rounded=1;orthogonalLoop=1;jettySize=auto;html=1;labelBackgroundColor=none;strokeColor=#E07A5F;fontColor=default;" parent="1" source="45236fa5f4b8e91a-8" target="374e34682ed331ee-1" edge="1">
          <mxGeometry relative="1" as="geometry" />
        </mxCell>
        <mxCell id="45236fa5f4b8e91a-8" value="Грузчики" style="ellipse;whiteSpace=wrap;html=1;rounded=1;shadow=0;dashed=0;comic=0;fontFamily=Verdana;fontSize=22;fontColor=#393C56;fillColor=#F2CC8F;strokeColor=#E07A5F;labelBackgroundColor=none;" parent="1" vertex="1">
          <mxGeometry x="310" y="675" width="130" height="130" as="geometry" />
        </mxCell>
        <mxCell id="wPZr9ZF9iKrXsQ1pUPwF-2" value="ТУ, ТИ, ГОСТ" style="ellipse;whiteSpace=wrap;html=1;rounded=1;shadow=0;dashed=0;comic=0;fontFamily=Verdana;fontSize=22;fontColor=#393C56;fillColor=#F2CC8F;strokeColor=#E07A5F;labelBackgroundColor=none;" parent="1" vertex="1">
          <mxGeometry x="310" y="10" width="160" height="160" as="geometry" />
        </mxCell>
        <mxCell id="wPZr9ZF9iKrXsQ1pUPwF-3" value="" style="curved=1;endArrow=classic;html=1;rounded=1;edgeStyle=orthogonalEdgeStyle;exitX=1;exitY=1;exitDx=0;exitDy=0;entryX=0;entryY=0.5;entryDx=0;entryDy=0;labelBackgroundColor=none;strokeColor=#E07A5F;fontColor=default;" parent="1" source="45236fa5f4b8e91a-5" target="374e34682ed331ee-1" edge="1">
          <mxGeometry width="50" height="50" relative="1" as="geometry">
            <mxPoint x="480" y="410" as="sourcePoint" />
            <mxPoint x="530" y="360" as="targetPoint" />
            <Array as="points">
              <mxPoint x="227" y="380" />
            </Array>
          </mxGeometry>
        </mxCell>
        <mxCell id="wPZr9ZF9iKrXsQ1pUPwF-5" value="" style="curved=1;endArrow=classic;html=1;rounded=1;edgeStyle=orthogonalEdgeStyle;exitX=1;exitY=0.5;exitDx=0;exitDy=0;labelBackgroundColor=none;strokeColor=#E07A5F;fontColor=default;" parent="1" source="45236fa5f4b8e91a-4" target="374e34682ed331ee-1" edge="1">
          <mxGeometry width="50" height="50" relative="1" as="geometry">
            <mxPoint x="480" y="410" as="sourcePoint" />
            <mxPoint x="530" y="360" as="targetPoint" />
            <Array as="points">
              <mxPoint x="250" y="380" />
            </Array>
          </mxGeometry>
        </mxCell>
        <mxCell id="wPZr9ZF9iKrXsQ1pUPwF-7" value="" style="curved=1;endArrow=classic;html=1;rounded=1;edgeStyle=orthogonalEdgeStyle;entryX=0.5;entryY=0;entryDx=0;entryDy=0;labelBackgroundColor=none;strokeColor=#E07A5F;fontColor=default;" parent="1" target="374e34682ed331ee-1" edge="1">
          <mxGeometry width="50" height="50" relative="1" as="geometry">
            <mxPoint x="470" y="90" as="sourcePoint" />
            <mxPoint x="520" y="40" as="targetPoint" />
            <Array as="points">
              <mxPoint x="530" y="90" />
            </Array>
          </mxGeometry>
        </mxCell>
        <mxCell id="wPZr9ZF9iKrXsQ1pUPwF-8" value="" style="curved=1;endArrow=classic;html=1;rounded=1;edgeStyle=orthogonalEdgeStyle;exitX=0.008;exitY=0.557;exitDx=0;exitDy=0;exitPerimeter=0;labelBackgroundColor=none;strokeColor=#E07A5F;fontColor=default;" parent="1" source="45236fa5f4b8e91a-1" edge="1">
          <mxGeometry width="50" height="50" relative="1" as="geometry">
            <mxPoint x="530.63" y="114.27999999999999" as="sourcePoint" />
            <mxPoint x="529.35" y="180.00082057734576" as="targetPoint" />
            <Array as="points">
              <mxPoint x="529" y="99" />
            </Array>
          </mxGeometry>
        </mxCell>
        <mxCell id="wPZr9ZF9iKrXsQ1pUPwF-19" style="edgeStyle=orthogonalEdgeStyle;rounded=1;orthogonalLoop=1;jettySize=auto;html=1;entryX=1;entryY=0.5;entryDx=0;entryDy=0;labelBackgroundColor=none;strokeColor=#E07A5F;fontColor=default;" parent="1" source="wPZr9ZF9iKrXsQ1pUPwF-18" target="374e34682ed331ee-1" edge="1">
          <mxGeometry relative="1" as="geometry" />
        </mxCell>
        <mxCell id="wPZr9ZF9iKrXsQ1pUPwF-18" value="Готовый продукт" style="ellipse;whiteSpace=wrap;html=1;rounded=1;shadow=0;dashed=0;comic=0;fontFamily=Verdana;fontSize=22;fontColor=#393C56;fillColor=#F2CC8F;strokeColor=#E07A5F;labelBackgroundColor=none;" parent="1" vertex="1">
          <mxGeometry x="960" y="315" width="130" height="130" as="geometry" />
        </mxCell>
        <mxCell id="HVIjkFfSTjv3lXPBZ67b-3" style="edgeStyle=orthogonalEdgeStyle;rounded=1;orthogonalLoop=1;jettySize=auto;html=1;exitX=0.5;exitY=0;exitDx=0;exitDy=0;strokeColor=#E07A5F;fontColor=#393C56;fillColor=#F2CC8F;" parent="1" source="HVIjkFfSTjv3lXPBZ67b-1" edge="1">
          <mxGeometry relative="1" as="geometry">
            <mxPoint x="529.9999999999998" y="580" as="targetPoint" />
          </mxGeometry>
        </mxCell>
        <mxCell id="HVIjkFfSTjv3lXPBZ67b-1" value="Лаборант" style="ellipse;whiteSpace=wrap;html=1;rounded=1;shadow=0;dashed=0;comic=0;fontFamily=Verdana;fontSize=22;fontColor=#393C56;fillColor=#F2CC8F;strokeColor=#E07A5F;labelBackgroundColor=none;" parent="1" vertex="1">
          <mxGeometry x="150" y="675" width="130" height="125" as="geometry" />
        </mxCell>
        <mxCell id="QT86m3mbr-eqHkS3HU8l-4" style="edgeStyle=orthogonalEdgeStyle;rounded=0;orthogonalLoop=1;jettySize=auto;html=1;exitX=1;exitY=0.5;exitDx=0;exitDy=0;entryX=0;entryY=0.5;entryDx=0;entryDy=0;fillColor=#f8cecc;strokeColor=#b85450;curved=1;" edge="1" parent="1" source="QT86m3mbr-eqHkS3HU8l-2" target="374e34682ed331ee-1">
          <mxGeometry relative="1" as="geometry" />
        </mxCell>
        <mxCell id="QT86m3mbr-eqHkS3HU8l-2" value="Перечень поставщиков" style="ellipse;whiteSpace=wrap;html=1;rounded=1;shadow=0;dashed=0;comic=0;fontFamily=Verdana;fontSize=22;fontColor=#393C56;fillColor=#F2CC8F;strokeColor=#E07A5F;labelBackgroundColor=none;" vertex="1" parent="1">
          <mxGeometry x="40" y="290" width="160" height="160" as="geometry" />
        </mxCell>
        <mxCell id="QT86m3mbr-eqHkS3HU8l-7" style="edgeStyle=orthogonalEdgeStyle;rounded=0;orthogonalLoop=1;jettySize=auto;html=1;exitX=1;exitY=1;exitDx=0;exitDy=0;entryX=0;entryY=0.5;entryDx=0;entryDy=0;curved=1;fillColor=#f8cecc;strokeColor=#b85450;" edge="1" parent="1" source="QT86m3mbr-eqHkS3HU8l-5" target="374e34682ed331ee-1">
          <mxGeometry relative="1" as="geometry" />
        </mxCell>
        <mxCell id="QT86m3mbr-eqHkS3HU8l-5" value="План производства" style="ellipse;whiteSpace=wrap;html=1;rounded=1;shadow=0;dashed=0;comic=0;fontFamily=Verdana;fontSize=22;fontColor=#393C56;fillColor=#F2CC8F;strokeColor=#E07A5F;labelBackgroundColor=none;" vertex="1" parent="1">
          <mxGeometry x="40" y="-50" width="160" height="160" as="geometry" />
        </mxCell>
      </root>
    </mxGraphModel>
  </diagram>
</mxfile>
